Coordinates
version=1
nRows=22
nColumns=24
inDegrees=yes

Units are S.I. units (second, meters, Newtons, ...)
Angles are in degrees.

endheader
time	pelvis_tilt	pelvis_list	pelvis_rotation	pelvis_tx	pelvis_ty	pelvis_tz	hip_flexion_r	hip_adduction_r	hip_rotation_r	knee_angle_r	ankle_angle_r	subtalar_angle_r	mtp_angle_r	hip_flexion_l	hip_adduction_l	hip_rotation_l	knee_angle_l	ankle_angle_l	subtalar_angle_l	mtp_angle_l	lumbar_extension	lumbar_bending	lumbar_rotation
      2.21000000	     24.47597291	     -0.89652592	      1.70164872	     -0.70062505	      1.01919688	     -0.01500046	    -39.11392496	      3.48802570	     -9.14628282	     -5.34873618	     15.52681073	     -3.34036786	     13.64219125	     -7.90501330	     -1.48407984	     -7.90708200	      0.03387102	     -0.42651945	      1.25196906	     29.50721916	    -38.93815734	      0.32686882	      2.83580276
      2.21500000	     24.44013030	     -0.78707691	      1.60330286	     -0.69490172	      1.01858050	     -0.01538843	    -39.25972669	      3.27592247	     -9.26651822	     -5.66310903	     15.62172944	     -3.24023423	     13.57708325	     -7.84882861	     -1.27795948	     -8.11030135	     -0.22849991	     -0.69977609	      1.07562913	     29.51759104	    -38.87600885	      0.14390826	      2.77227035
      2.22000000	     24.48384171	     -0.63748858	      1.53144738	     -0.68913563	      1.01806902	     -0.01588581	    -39.47220261	      3.02440450	     -9.59272585	     -6.03286170	     15.81250579	     -2.72435253	     13.53035365	     -7.87778950	     -1.03348982	     -8.18391128	     -0.55831930	     -1.09003395	      0.60322923	     29.56044620	    -38.89502609	     -0.05454654	      2.65950190
      2.22500000	     24.46004141	     -0.47632038	      1.45976740	     -0.68334812	      1.01752635	     -0.01633079	    -39.59874771	      2.76706124	     -9.81922810	     -6.42245371	     15.94637935	     -2.43153794	     13.57680395	     -7.79398117	     -0.79412073	     -8.24936920	     -1.02146295	     -1.51006235	      0.16329709	     29.57534004	    -38.84295771	     -0.27427722	      2.51651511
      2.23000000	     24.44622363	     -0.29222575	      1.39647518	     -0.67751939	      1.01703154	     -0.01680954	    -39.71593434	      2.48568509	    -10.12630072	     -6.85267938	     16.02733288	     -2.08194330	     13.73051887	     -7.70498837	     -0.53895707	     -8.23897498	     -1.57109523	     -1.95157773	     -0.40343964	     29.58663214	    -38.79731335	     -0.51245073	      2.38237336
      2.23500000	     24.40890042	     -0.11301058	      1.32596388	     -0.67170618	      1.01655702	     -0.01726075	    -39.77897861	      2.19914325	    -10.34103663	     -7.33698448	     16.11981558	     -1.79276093	     13.95146313	     -7.57034388	     -0.30075581	     -8.21376528	     -2.19400010	     -2.43977604	     -0.97320369	     29.56563577	    -38.73073113	     -0.75396313	      2.21213002
      2.24000000	     24.36443642	      0.09020069	      1.28347355	     -0.66585281	      1.01611158	     -0.01777171	    -39.82316463	      1.90126300	    -10.64540262	     -7.84133880	     16.14071095	     -1.48076469	     14.30759325	     -7.40580507	     -0.04600185	     -8.09402799	     -2.89497064	     -2.91866093	     -1.65616667	     29.52979473	    -38.65354400	     -1.00538117	      2.05506586
      2.24500000	     24.31010176	      0.29614455	      1.24020758	     -0.65999812	      1.01570419	     -0.01826188	    -39.82510662	      1.59537401	    -10.91388827	     -8.40214425	     16.14148970	     -1.19837103	     14.77303897	     -7.21514854	      0.20255279	     -7.95128997	     -3.65173392	     -3.38979556	     -2.34252312	     29.46610967	    -38.56546834	     -1.26457815	      1.87648351
      2.25000000	     24.26765593	      0.51440636	      1.20925091	     -0.65413071	      1.01536496	     -0.01876766	    -39.81744168	      1.28057110	    -11.18595577	     -8.98313365	     15.75596495	     -1.14617225	     18.23462773	     -7.02825868	      0.45382086	     -7.79089243	     -4.45009879	     -3.78852860	     -2.93832846	     29.37213351	    -38.49302348	     -1.53052755	      1.65198818
      2.25500000	     24.19479052	      0.70135560	      1.17241320	     -0.64833058	      1.01504860	     -0.01929044	    -39.72794624	      0.97910498	    -11.37615636	     -9.65979651	     15.72093809	     -0.95124976	     18.42843536	     -6.78713226	      0.67304121	     -7.55801113	     -5.29893766	     -4.16844968	     -3.67961358	     29.21898800	    -38.39356390	     -1.77247719	      1.49150461
      2.26000000	     24.10987791	      0.91285636	      1.16245478	     -0.64252278	      1.01476868	     -0.01987740	    -39.59037770	      0.65841534	    -11.62442810	    -10.40665859	     15.64620583	     -0.70827005	     18.77576035	     -6.52177021	      0.91490104	     -7.27407556	     -6.18276004	     -4.48536345	     -4.38483259	     29.00977624	    -38.28406551	     -2.02108849	      1.28542923
      2.26500000	     24.07002501	      1.14572694	      1.15386692	     -0.63665917	      1.01460126	     -0.02046558	    -39.49131222	      0.31527609	    -11.89937321	    -11.14938369	     15.15467033	     -0.67155232	     22.09276180	     -6.31438747	      1.17734031	     -6.98377176	     -7.08614206	     -4.54692923	     -4.91379634	     27.51049660	    -38.21810349	     -2.29143616	      1.05845239
      2.27000000	     23.94717894	      1.31375003	      1.16814040	     -0.63093300	      1.01438623	     -0.02110814	    -39.22052204	      0.02802473	    -12.07297516	    -12.03838170	     15.00753212	     -0.54179356	     22.30006439	     -5.97442922	      1.37130873	     -6.63355533	     -8.05324807	     -4.66842908	     -5.57472591	     27.29612556	    -38.07659912	     -2.48924455	      0.88863953
      2.27500000	     23.84548922	      1.50863513	      1.20946303	     -0.62519216	      1.01424313	     -0.02183611	    -38.94131754	     -0.28381992	    -12.33357792	    -12.99022459	     14.76685307	     -0.35086339	     22.74676078	     -5.66462038	      1.60262413	     -6.21447343	     -9.01925600	     -4.71589393	     -6.26979860	     26.94518188	    -37.95892189	     -2.69337736	      0.67200500
      2.28000000	     23.81493062	      1.70486157	      1.21407854	     -0.61941858	      1.01425972	     -0.02251881	    -38.71784009	     -0.62181721	    -12.52741249	    -13.93395958	     14.02842288	     -0.49120188	     27.15930982	     -5.45744829	      1.83777993	     -5.85465022	     -9.98787429	     -4.30866035	     -6.59027405	     23.89857167	    -37.91304682	     -2.91959728	      0.48741269
      2.28500000	     23.68134216	      1.85420885	      1.24986877	     -0.61372652	      1.01419912	     -0.02327602	    -38.30297439	     -0.92037161	    -12.69090227	    -15.03697629	     13.67128212	     -0.41252654	     27.35570086	     -5.11073623	      2.02962444	     -5.45622755	    -10.98123598	     -4.17685747	     -7.12798387	     23.64487526	    -37.76369446	     -3.08315248	      0.32196112
      2.29000000	     23.64019157	      2.02411252	      1.27959208	     -0.60801228	      1.01430227	     -0.02406860	    -37.96868706	     -1.25196099	    -12.88593639	    -16.14002543	     12.88709934	     -0.51976482	     31.00141603	     -4.89953772	      2.25507283	     -5.04303160	    -11.94865408	     -3.63687854	     -7.44527897	     20.49795107	    -37.71082153	     -3.26360208	      0.15594668
      2.29500000	     23.52400753	      2.14225404	      1.32544394	     -0.60239802	      1.01434784	     -0.02489912	    -37.46820890	     -1.54498844	    -13.01580393	    -17.40065288	     12.38312139	     -0.49257378	     31.20198581	     -4.59473104	      2.43032836	     -4.63178519	    -12.91232740	     -3.35175896	     -7.89270729	     20.26151904	    -37.58679990	     -3.38694648	      0.02782632
      2.30000000	     23.48952101	      2.30364290	      1.37344703	     -0.59672499	      1.01453712	     -0.02576629	    -37.04990868	     -1.88318517	    -13.20005128	    -18.63837189	     11.45314705	     -0.73655698	     35.10578931	     -4.42524600	      2.66384440	     -4.19076594	    -13.82901544	     -2.69015597	     -8.13688537	     17.13316629	    -37.54495010	     -3.54338331	     -0.15299399
      2.30500000	     23.37149018	      2.35760928	      1.37416671	     -0.59116642	      1.01467909	     -0.02660687	    -36.42784175	     -2.18077051	    -13.24914009	    -20.06074750	     10.75987030	     -0.69609789	     35.33092581	     -4.17023985	      2.79260979	     -3.84858505	    -14.70893742	     -2.31057717	     -8.52702626	     16.88982629	    -37.41568136	     -3.62450278	     -0.17326434
      2.31000000	     23.34351446	      2.48685426	      1.41386133	     -0.58552388	      1.01494037	     -0.02751352	    -35.91893124	     -2.52509481	    -13.41286076	    -21.42826280	      9.63559704	     -1.04105285	     39.42396658	     -4.06540464	      3.00525791	     -3.45916311	    -15.52896484	     -1.54862148	     -8.66147774	     13.86495446	    -37.37794854	     -3.74660680	     -0.32664468
      2.31500000	     23.28087718	      2.53095662	      1.38657619	     -0.57999937	      1.01521815	     -0.02835231	    -35.27451202	     -2.84833359	    -13.41280124	    -22.92730074	      8.60857626	     -1.20457131	     41.47010036	     -3.94879884	      3.13648244	     -3.17457824	    -16.28764098	     -0.87969663	     -8.84261483	     11.70459439	    -37.30522591	     -3.82480704	     -0.31986789
